<svg width="32" height="32" viewBox="0 0 32 32" fill="none" xmlns="http://www.w3.org/2000/svg">
<path d="M15.9999 23.9997C11.5816 23.9997 7.99992 20.4179 7.99992 15.9997C7.99992 11.5814 11.5816 7.99967 15.9999 7.99967C20.4182 7.99967 23.9999 11.5814 23.9999 15.9997C23.9999 20.4179 20.4182 23.9997 15.9999 23.9997ZM15.9999 21.333C18.9454 21.333 21.3333 18.9451 21.3333 15.9997C21.3333 13.0542 18.9454 10.6663 15.9999 10.6663C13.0544 10.6663 10.6666 13.0542 10.6666 15.9997C10.6666 18.9451 13.0544 21.333 15.9999 21.333ZM14.6666 1.33301H17.3333V5.33301H14.6666V1.33301ZM14.6666 26.6663H17.3333V30.6663H14.6666V26.6663ZM4.68621 6.57158L6.57183 4.68597L9.40025 7.51439L7.51464 9.40001L4.68621 6.57158ZM22.5995 24.485L24.4853 22.5993L27.3137 25.4278L25.4281 27.3134L22.5995 24.485ZM25.4281 4.68597L27.3137 6.57158L24.4853 9.40001L22.5995 7.51439L25.4281 4.68597ZM7.51464 22.5993L9.40025 24.485L6.57183 27.3134L4.68621 25.4278L7.51464 22.5993ZM30.6666 14.6663V17.333H26.6666V14.6663H30.6666ZM5.33325 14.6663V17.333H1.33325V14.6663H5.33325Z" fill="#D2D8E8"/>
</svg>
