<svg width="52" height="52" viewBox="0 0 52 52" fill="none" xmlns="http://www.w3.org/2000/svg">
<path d="M13.0499 37.4669C14.8916 36.1004 16.8979 35.0212 19.0689 34.2293C21.2396 33.4378 23.5499 33.042 26.0001 33.042C28.4502 33.042 30.7606 33.4378 32.9312 34.2293C35.1022 35.0212 37.1086 36.1004 38.9502 37.4669C40.2972 35.9863 41.3645 34.2725 42.152 32.3254C42.9396 30.3783 43.3334 28.2699 43.3334 26.0003C43.3334 21.1975 41.6452 17.108 38.2688 13.7316C34.8924 10.3552 30.8029 8.66699 26.0001 8.66699C21.1973 8.66699 17.1077 10.3552 13.7313 13.7316C10.3549 17.108 8.66675 21.1975 8.66675 26.0003C8.66675 28.2699 9.06054 30.3783 9.84812 32.3254C10.6357 34.2725 11.703 35.9863 13.0499 37.4669ZM26.0006 27.6253C24.0225 27.6253 22.3543 26.9464 20.9962 25.5887C19.6377 24.2305 18.9584 22.5624 18.9584 20.5842C18.9584 18.606 19.6373 16.9379 20.9951 15.5797C22.3532 14.2212 24.0214 13.542 25.9995 13.542C27.9777 13.542 29.6459 14.2209 31.004 15.5787C32.3625 16.9368 33.0417 18.6049 33.0417 20.5831C33.0417 22.5613 32.3629 24.2294 31.0051 25.5876C29.6469 26.9461 27.9788 27.6253 26.0006 27.6253ZM26.0001 46.5837C23.1419 46.5837 20.4606 46.0461 17.9563 44.9711C15.452 43.8961 13.2736 42.4321 11.4211 40.5793C9.56826 38.7268 8.10432 36.5484 7.02929 34.0441C5.95426 31.5398 5.41675 28.8585 5.41675 26.0003C5.41675 23.1421 5.95426 20.4609 7.02929 17.9566C8.10432 15.4523 9.56826 13.2739 11.4211 11.4214C13.2736 9.5685 15.452 8.10456 17.9563 7.02953C20.4606 5.95451 23.1419 5.41699 26.0001 5.41699C28.8583 5.41699 31.5395 5.95451 34.0438 7.02953C36.5481 8.10456 38.7265 9.5685 40.579 11.4214C42.4319 13.2739 43.8958 15.4523 44.9709 17.9566C46.0459 20.4609 46.5834 23.1421 46.5834 26.0003C46.5834 28.8585 46.0459 31.5398 44.9709 34.0441C43.8958 36.5484 42.4319 38.7268 40.579 40.5793C38.7265 42.4321 36.5481 43.8961 34.0438 44.9711C31.5395 46.0461 28.8583 46.5837 26.0001 46.5837ZM26.0001 43.3337C27.9555 43.3337 29.8409 43.0191 31.6562 42.3901C33.4715 41.7607 35.0833 40.8808 36.4916 39.7505C35.0833 38.6614 33.4924 37.8128 31.719 37.2047C29.9452 36.5962 28.0389 36.292 26.0001 36.292C23.9612 36.292 22.0515 36.5926 20.2709 37.1939C18.4902 37.7955 16.9028 38.6477 15.5085 39.7505C16.9169 40.8808 18.5287 41.7607 20.344 42.3901C22.1593 43.0191 24.0447 43.3337 26.0001 43.3337ZM26.0001 24.3753C27.078 24.3753 27.9793 24.0128 28.7041 23.2877C29.4292 22.5629 29.7917 21.6616 29.7917 20.5837C29.7917 19.5057 29.4292 18.6044 28.7041 17.8797C27.9793 17.1545 27.078 16.792 26.0001 16.792C24.9222 16.792 24.0208 17.1545 23.2961 17.8797C22.571 18.6044 22.2084 19.5057 22.2084 20.5837C22.2084 21.6616 22.571 22.5629 23.2961 23.2877C24.0208 24.0128 24.9222 24.3753 26.0001 24.3753Z" fill="#2B2934"/>
</svg>
