<svg width="40" height="40" viewBox="0 0 40 40" fill="none" xmlns="http://www.w3.org/2000/svg">
<path d="M10.032 32.0513C7.15369 31.2371 4.90633 29.6922 3.28994 27.4167C1.67355 25.1411 0.865356 22.6689 0.865356 20C0.865356 17.3311 1.67355 14.8589 3.28994 12.5833C4.90633 10.3078 7.15369 8.76292 10.032 7.94875V10.5833C8.0598 11.25 6.45563 12.4444 5.21952 14.1667C3.98341 15.8889 3.36536 17.8333 3.36536 20C3.36536 22.1667 3.98341 24.1111 5.21952 25.8333C6.45563 27.5556 8.0598 28.75 10.032 29.4167V32.0513ZM23.3654 32.5C19.8954 32.5 16.9445 31.2842 14.5129 28.8525C12.0812 26.4208 10.8654 23.47 10.8654 20C10.8654 16.53 12.0812 13.5792 14.5129 11.1475C16.9445 8.71583 19.8954 7.5 23.3654 7.5C25.0384 7.5 26.6191 7.80986 28.1074 8.42958C29.5955 9.04931 30.9133 9.91153 32.0608 11.0163L30.3045 12.7725C29.3984 11.8986 28.3573 11.2181 27.1812 10.7308C26.0048 10.2436 24.7329 10 23.3654 10C20.5876 10 18.2265 10.9722 16.282 12.9167C14.3376 14.8611 13.3654 17.2222 13.3654 20C13.3654 22.7778 14.3376 25.1389 16.282 27.0833C18.2265 29.0278 20.5876 30 23.3654 30C24.7329 30 26.0048 29.7564 27.1812 29.2692C28.3573 28.7819 29.3984 28.1014 30.3045 27.2275L32.0608 28.9837C30.9133 30.0885 29.5955 30.9507 28.1074 31.5704C26.6191 32.1901 25.0384 32.5 23.3654 32.5ZM33.0449 26.0896L31.2883 24.3333L34.3716 21.25H21.7949V18.75H34.3716L31.2883 15.6667L33.0449 13.9104L39.1345 20L33.0449 26.0896Z" fill="#2B2934"/>
</svg>
