<svg width="40" height="40" viewBox="0 0 40 40" fill="none" xmlns="http://www.w3.org/2000/svg">
<path d="M12.0212 27.9338H22.7583V25.8396H12.0212V27.9338ZM12.0212 21.0471H27.9787V18.953H12.0212V21.0471ZM12.0212 14.1605H27.9787V12.0663H12.0212V14.1605ZM8.44034 34.1667C7.72395 34.1667 7.11034 33.9113 6.5995 33.4005C6.08867 32.8896 5.83325 32.276 5.83325 31.5596V8.44046C5.83325 7.72407 6.08867 7.11046 6.5995 6.59962C7.11034 6.08879 7.72395 5.83337 8.44034 5.83337H31.5595C32.2759 5.83337 32.8895 6.08879 33.4003 6.59962C33.9112 7.11046 34.1666 7.72407 34.1666 8.44046V31.5596C34.1666 32.276 33.9112 32.8896 33.4003 33.4005C32.8895 33.9113 32.2759 34.1667 31.5595 34.1667H8.44034ZM8.44034 32.0725H31.5595C31.6878 32.0725 31.8055 32.0192 31.9124 31.9125C32.0191 31.8056 32.0724 31.688 32.0724 31.5596V8.44046C32.0724 8.31212 32.0191 8.19448 31.9124 8.08754C31.8055 7.98087 31.6878 7.92754 31.5595 7.92754H8.44034C8.312 7.92754 8.19436 7.98087 8.08742 8.08754C7.98075 8.19448 7.92742 8.31212 7.92742 8.44046V31.5596C7.92742 31.688 7.98075 31.8056 8.08742 31.9125C8.19436 32.0192 8.312 32.0725 8.44034 32.0725Z" fill="#3B82F6"/>
</svg>
