<svg width="40" height="40" viewBox="0 0 40 40" fill="none" xmlns="http://www.w3.org/2000/svg">
<path d="M20.5129 35.8337C19.6709 35.8337 18.9583 35.542 18.375 34.9587C17.7916 34.3753 17.5 33.6627 17.5 32.8207V20.5132C17.5 19.6713 17.7916 18.9587 18.375 18.3753C18.9583 17.792 19.6709 17.5003 20.5129 17.5003H32.8204C33.6623 17.5003 34.375 17.792 34.9583 18.3753C35.5416 18.9587 35.8333 19.6713 35.8333 20.5132V32.8207C35.8333 33.6627 35.5416 34.3753 34.9583 34.9587C34.375 35.542 33.6623 35.8337 32.8204 35.8337H20.5129ZM20.5129 33.3337H32.8204C32.9487 33.3337 33.0662 33.2802 33.1729 33.1732C33.2798 33.0666 33.3333 32.9491 33.3333 32.8207V20.5132C33.3333 20.3849 33.2798 20.2674 33.1729 20.1607C33.0662 20.0538 32.9487 20.0003 32.8204 20.0003H20.5129C20.3845 20.0003 20.267 20.0538 20.1604 20.1607C20.0534 20.2674 20 20.3849 20 20.5132V32.8207C20 32.9491 20.0534 33.0666 20.1604 33.1732C20.267 33.2802 20.3845 33.3337 20.5129 33.3337ZM10.8333 29.3591V13.8466C10.8333 13.0046 11.125 12.292 11.7083 11.7087C12.2916 11.1253 13.0043 10.8337 13.8462 10.8337H29.3587V13.3337H13.8462C13.7179 13.3337 13.6004 13.3871 13.4937 13.4941C13.3868 13.6007 13.3333 13.7182 13.3333 13.8466V29.3591H10.8333ZM4.16663 22.6924V7.17991C4.16663 6.33796 4.45829 5.62533 5.04163 5.04199C5.62496 4.45866 6.3376 4.16699 7.17954 4.16699H22.692V6.66699H7.17954C7.05121 6.66699 6.93371 6.72046 6.82704 6.82741C6.7201 6.93407 6.66663 7.05158 6.66663 7.17991V22.6924H4.16663Z" fill="#3B82F6"/>
</svg>
