<svg width="40" height="40" viewBox="0 0 40 40" fill="none" xmlns="http://www.w3.org/2000/svg">
<path d="M21.25 18.75H33.282C32.9615 15.5341 31.68 12.8023 29.4375 10.5545C27.195 8.30649 24.4658 7.0276 21.25 6.71788V18.75ZM18.75 33.282V6.71788C15.3141 7.0276 12.4412 8.4501 10.1312 10.9854C7.82149 13.5207 6.66663 16.5255 6.66663 20C6.66663 23.4744 7.82149 26.4793 10.1312 29.0145C12.4412 31.5498 15.3141 32.9723 18.75 33.282ZM21.25 33.282C24.4658 32.9893 27.1993 31.7147 29.4504 29.4583C31.7015 27.2019 32.9787 24.4658 33.282 21.25H21.25V33.282ZM20.0029 35.8333C17.8129 35.8333 15.7544 35.4177 13.8275 34.5866C11.9005 33.7555 10.2244 32.6276 8.79913 31.2029C7.37385 29.7782 6.24538 28.1027 5.41371 26.1766C4.58232 24.2505 4.16663 22.1926 4.16663 20.0029C4.16663 17.8129 4.58218 15.7544 5.41329 13.8275C6.2444 11.9005 7.37232 10.2244 8.79704 8.79913C10.2218 7.37385 11.8972 6.24538 13.8233 5.41371C15.7494 4.58232 17.8073 4.16663 19.997 4.16663C22.187 4.16663 24.2409 4.58274 26.1587 5.41496C28.0765 6.24718 29.7522 7.38024 31.1858 8.81412C32.6197 10.2477 33.7527 11.9229 34.585 13.8395C35.4172 15.7559 35.8333 17.8111 35.8333 20.005C35.8333 22.1725 35.4177 24.2187 34.5866 26.1437C33.7555 28.0684 32.6276 29.7493 31.2029 31.1862C29.7782 32.6232 28.1027 33.7569 26.1766 34.5875C24.2505 35.418 22.1926 35.8333 20.0029 35.8333Z" fill="#2B2934"/>
</svg>
