<svg width="40" height="40" viewBox="0 0 40 40" fill="none" xmlns="http://www.w3.org/2000/svg">
<path d="M12.0212 27.9334H22.7583V25.8393H12.0212V27.9334ZM12.0212 21.0468H27.9787V18.9526H12.0212V21.0468ZM12.0212 14.1601H27.9787V12.0659H12.0212V14.1601ZM8.4404 34.1663C7.72401 34.1663 7.1104 33.9109 6.59956 33.4001C6.08873 32.8893 5.83331 32.2756 5.83331 31.5593V8.44009C5.83331 7.7237 6.08873 7.11009 6.59956 6.59926C7.1104 6.08843 7.72401 5.83301 8.4404 5.83301H31.5596C32.276 5.83301 32.8896 6.08843 33.4004 6.59926C33.9112 7.11009 34.1666 7.7237 34.1666 8.44009V31.5593C34.1666 32.2756 33.9112 32.8893 33.4004 33.4001C32.8896 33.9109 32.276 34.1663 31.5596 34.1663H8.4404ZM8.4404 32.0722H31.5596C31.6879 32.0722 31.8055 32.0188 31.9125 31.9122C32.0191 31.8052 32.0725 31.6876 32.0725 31.5593V8.44009C32.0725 8.31176 32.0191 8.19412 31.9125 8.08717C31.8055 7.98051 31.6879 7.92718 31.5596 7.92718H8.4404C8.31206 7.92718 8.19442 7.98051 8.08748 8.08717C7.98081 8.19412 7.92748 8.31176 7.92748 8.44009V31.5593C7.92748 31.6876 7.98081 31.8052 8.08748 31.9122C8.19442 32.0188 8.31206 32.0722 8.4404 32.0722Z" fill="#3B82F6"/>
</svg>
