<svg width="40" height="40" viewBox="0 0 40 40" fill="none" xmlns="http://www.w3.org/2000/svg">
<path d="M7.21165 32.7886V30.2886H12.0833L10.8716 29.1286C9.5022 27.8614 8.52845 26.443 7.9504 24.8736C7.37234 23.3041 7.08331 21.7182 7.08331 20.1157C7.08331 17.2354 7.92678 14.6526 9.61373 12.3673C11.3007 10.0821 13.5128 8.51316 16.25 7.66066V10.2952C14.2391 11.0814 12.6254 12.3693 11.4087 14.159C10.1918 15.9484 9.58331 17.934 9.58331 20.1157C9.58331 21.419 9.83012 22.685 10.3237 23.9136C10.8173 25.1422 11.5855 26.2779 12.6283 27.3207L13.6858 28.3786V23.8144H16.1858V32.7886H7.21165ZM23.75 32.3398V29.7052C25.7608 28.9191 27.3746 27.6312 28.5912 25.8415C29.8082 24.0521 30.4166 22.0665 30.4166 19.8848C30.4166 18.5815 30.1698 17.3155 29.6762 16.0869C29.1826 14.8583 28.4144 13.7226 27.3716 12.6798L26.3141 11.6219V16.1861H23.8141V7.21191H32.7883V9.71191H27.9166L29.1283 10.8719C30.4466 12.1905 31.4076 13.6216 32.0112 15.1652C32.6148 16.7091 32.9166 18.2823 32.9166 19.8848C32.9166 22.7651 32.0732 25.3479 30.3862 27.6332C28.6993 29.9184 26.4872 31.4873 23.75 32.3398Z" fill="#3B82F6"/>
</svg>
