<svg width="40" height="40" viewBox="0 0 40 40" fill="none" xmlns="http://www.w3.org/2000/svg">
<path d="M17.5 37.6918V34.1664H8.84626C8.00432 34.1664 7.29168 33.8747 6.70834 33.2914C6.12501 32.708 5.83334 31.9954 5.83334 31.1535V8.84595C5.83334 8.00401 6.12501 7.29137 6.70834 6.70803C7.29168 6.1247 8.00432 5.83303 8.84626 5.83303H17.5V2.30762H20V37.6918H17.5ZM8.84626 31.6664H17.5V27.4997H12.0833V24.9997H17.5V21.2497H12.0833V18.7497H17.5V14.9997H12.0833V12.4997H17.5V8.33303H8.84626C8.71793 8.33303 8.60043 8.3865 8.49376 8.49345C8.38682 8.60012 8.33334 8.71762 8.33334 8.84595V31.1535C8.33334 31.2818 8.38682 31.3993 8.49376 31.506C8.60043 31.6129 8.71793 31.6664 8.84626 31.6664ZM23.4938 8.33303V5.83303H31.3142C32.1561 5.83303 32.8688 6.1247 33.4521 6.70803C34.0351 7.29137 34.3267 8.00401 34.3267 8.84595V31.1535C34.3267 31.9954 34.0351 32.708 33.4521 33.2914C32.8688 33.8747 32.1561 34.1664 31.3142 34.1664H23.4938V31.6664H31.3142C31.4422 31.6664 31.5597 31.6129 31.6667 31.506C31.7736 31.3993 31.8271 31.2818 31.8271 31.1535V8.84595C31.8271 8.71762 31.7736 8.60012 31.6667 8.49345C31.5597 8.3865 31.4422 8.33303 31.3142 8.33303H23.4938ZM23.4938 21.2497V18.7497H28.9104V21.2497H23.4938ZM23.4938 14.9997V12.4997H28.9104V14.9997H23.4938Z" fill="#3B82F6"/>
</svg>
