<svg width="19" height="17" viewBox="0 0 19 17" fill="none" xmlns="http://www.w3.org/2000/svg">
<path d="M1.5 15.5V1.5V5.83075V5.30775V15.5ZM3.75 9.25H9.025C9.052 8.9795 9.11133 8.71925 9.203 8.46925C9.2945 8.21925 9.40825 7.9795 9.54425 7.75H3.75V9.25ZM3.75 13.25H7.45375C7.67942 12.9935 7.93075 12.7772 8.20775 12.601C8.48458 12.4247 8.77492 12.2795 9.07875 12.1655C9.03775 12.1038 9.00183 12.0372 8.971 11.9655C8.94033 11.8937 8.91475 11.8218 8.89425 11.75H3.75V13.25ZM3.75 5.25H13.25V3.75H3.75V5.25ZM1.80775 17C1.30258 17 0.875 16.825 0.525 16.475C0.175 16.125 0 15.6974 0 15.1923V1.80775C0 1.30258 0.175 0.875 0.525 0.525C0.875 0.175 1.30258 0 1.80775 0H15.1923C15.6974 0 16.125 0.175 16.475 0.525C16.825 0.875 17 1.30258 17 1.80775V7.2385C16.8115 6.93333 16.5938 6.66375 16.347 6.42975C16.1003 6.19575 15.818 5.99608 15.5 5.83075V1.80775C15.5 1.73075 15.4679 1.66025 15.4038 1.59625C15.3398 1.53208 15.2693 1.5 15.1923 1.5H1.80775C1.73075 1.5 1.66025 1.53208 1.59625 1.59625C1.53208 1.66025 1.5 1.73075 1.5 1.80775V15.1923C1.5 15.2692 1.53208 15.3398 1.59625 15.4038C1.66025 15.4679 1.73075 15.5 1.80775 15.5H6.53075C6.52058 15.5615 6.51292 15.623 6.50775 15.6845C6.50258 15.7462 6.5 15.8078 6.5 15.8693V17H1.80775ZM13.4423 12C12.8193 12 12.2885 11.7808 11.85 11.3422C11.4115 10.9038 11.1923 10.373 11.1923 9.75C11.1923 9.12683 11.4115 8.59608 11.85 8.15775C12.2885 7.71925 12.8193 7.5 13.4423 7.5C14.0654 7.5 14.5962 7.71925 15.0345 8.15775C15.473 8.59608 15.6923 9.12683 15.6923 9.75C15.6923 10.373 15.473 10.9038 15.0345 11.3422C14.5962 11.7808 14.0654 12 13.4423 12ZM8.69225 17V15.85C8.69225 15.4948 8.78358 15.1688 8.96625 14.872C9.14908 14.5753 9.4065 14.3616 9.7385 14.2308C10.3192 13.9872 10.9208 13.8046 11.5433 13.6827C12.1658 13.5609 12.7988 13.5 13.4423 13.5C14.0731 13.5 14.6997 13.5609 15.322 13.6827C15.9445 13.8046 16.5526 13.9872 17.1463 14.2308C17.4783 14.3616 17.7356 14.5753 17.9183 14.872C18.1009 15.1688 18.1923 15.4948 18.1923 15.85V17H8.69225Z" fill="#008CFA"/>
</svg>
